<svg width="45" height="41" viewBox="0 0 45 41" fill="none" xmlns="http://www.w3.org/2000/svg">
<circle cx="24.0821" cy="20.297" r="19.297" fill="#E78442" stroke="#402209" stroke-width="2"/>
<circle cx="20.297" cy="20.297" r="19.297" fill="#FFCD4B" stroke="#402209" stroke-width="2"/>
<circle cx="19.6655" cy="20.2964" r="14.2495" fill="#E78442" stroke="#402209" stroke-width="2"/>
<path d="M21.775 12.2074C21.0414 10.7209 18.9217 10.7209 18.1881 12.2074L16.4434 15.7426L16.5872 16.7322L16.4434 15.7426L12.5422 16.3094C10.9017 16.5478 10.2467 18.5638 11.4337 19.7208L14.2567 22.4725L13.5903 26.358C13.3101 27.9918 15.0249 29.2378 16.4922 28.4664L19.9816 26.6319L23.4709 28.4664C24.9382 29.2378 26.6531 27.9918 26.3728 26.358L25.7064 22.4725L28.5294 19.7208C29.7164 18.5638 29.0614 16.5478 27.421 16.3094L23.5197 15.7426L21.775 12.2074Z" fill="#FFCD4B" stroke="#402209" stroke-width="2"/>
</svg>
