<svg width="19" height="189" viewBox="0 0 19 189" fill="none" xmlns="http://www.w3.org/2000/svg">
<ellipse cx="9.5" cy="180.38" rx="9.5" ry="8.61951" fill="#402209"/>
<path d="M5 2.40723H3.5V3.90723V179.963C3.5 183.277 6.18629 185.963 9.5 185.963C12.8137 185.963 15.5 183.277 15.5 179.963V3.90723V2.40723H14H5Z" fill="#E2AA73" stroke="#402209" stroke-width="3"/>
<g style="mix-blend-mode:multiply">
<path fill-rule="evenodd" clip-rule="evenodd" d="M8 3.90723H5V179.963C5 182.449 7.01472 184.463 9.5 184.463C10.026 184.463 10.5308 184.373 11 184.207C9.25222 183.59 8 181.923 8 179.963V3.90723Z" fill="#DCBB95"/>
</g>
<path d="M3 107.341L16 100.99" stroke="#402209" stroke-width="2"/>
<path d="M3 31.1266L16 24.7754" stroke="#402209" stroke-width="2"/>
<path d="M3 9.35122L16 3" stroke="#402209" stroke-width="2"/>
<path d="M3 129.117L16 122.766" stroke="#402209" stroke-width="2"/>
<path d="M3 52.902L16 46.5508" stroke="#402209" stroke-width="2"/>
<path d="M3 150.892L16 144.541" stroke="#402209" stroke-width="2"/>
<path d="M3 74.6784L16 68.3271" stroke="#402209" stroke-width="2"/>
<path d="M3 172.669L16 166.317" stroke="#402209" stroke-width="2"/>
<path d="M3 96.4538L16 90.1025" stroke="#402209" stroke-width="2"/>
<path d="M3 140.005L16 133.653" stroke="#402209" stroke-width="2"/>
<path d="M3 63.7907L16 57.4395" stroke="#402209" stroke-width="2"/>
<path d="M3 118.229L16 111.878" stroke="#402209" stroke-width="2"/>
<path d="M3 42.0143L16 35.6631" stroke="#402209" stroke-width="2"/>
<path d="M3 20.2389L16 13.8877" stroke="#402209" stroke-width="2"/>
<path d="M3 161.781L16 155.43" stroke="#402209" stroke-width="2"/>
<path d="M3 85.5661L16 79.2148" stroke="#402209" stroke-width="2"/>
<path d="M5.5 182.649L16 177.205" stroke="#402209" stroke-width="2"/>
</svg>
