<svg width="155" height="227" viewBox="0 0 155 227" fill="none" xmlns="http://www.w3.org/2000/svg">
<circle cx="9.5" cy="217.5" r="9.5" fill="#402209"/>
<path d="M5 -10.5H3.5V-9V217.5C3.5 220.814 6.18629 223.5 9.5 223.5C12.8137 223.5 15.5 220.814 15.5 217.5V-9V-10.5H14H5Z" fill="#E2AA73" stroke="#402209" stroke-width="3"/>
<g style="mix-blend-mode:multiply">
<path fill-rule="evenodd" clip-rule="evenodd" d="M14 -5H5V217.5C5 219.985 7.01472 222 9.5 222C10.0259 222 10.5308 221.91 11 221.744C9.25221 221.126 8 219.459 8 217.5V1H14V-5Z" fill="#DCBB95"/>
</g>
<path d="M3 137L16 130" stroke="#402209" stroke-width="2"/>
<path d="M3 53L16 46" stroke="#402209" stroke-width="2"/>
<path d="M3 125L16 118" stroke="#402209" stroke-width="2"/>
<path d="M3 41L16 34" stroke="#402209" stroke-width="2"/>
<path d="M3 161L16 154" stroke="#402209" stroke-width="2"/>
<path d="M3 77L16 70" stroke="#402209" stroke-width="2"/>
<path d="M3 17L16 10" stroke="#402209" stroke-width="2"/>
<path d="M3 185L16 178" stroke="#402209" stroke-width="2"/>
<path d="M3 101L16 94" stroke="#402209" stroke-width="2"/>
<path d="M3 209L16 202" stroke="#402209" stroke-width="2"/>
<path d="M3 173L16 166" stroke="#402209" stroke-width="2"/>
<path d="M3 89L16 82" stroke="#402209" stroke-width="2"/>
<path d="M3 29L16 22" stroke="#402209" stroke-width="2"/>
<path d="M3 149L16 142" stroke="#402209" stroke-width="2"/>
<path d="M3 65L16 58" stroke="#402209" stroke-width="2"/>
<path d="M3 5L16 -2" stroke="#402209" stroke-width="2"/>
<path d="M3 197L16 190" stroke="#402209" stroke-width="2"/>
<path d="M3 113L16 106" stroke="#402209" stroke-width="2"/>
<path d="M5.5 220L16 214" stroke="#402209" stroke-width="2"/>
<circle cx="145.5" cy="217.5" r="9.5" fill="#402209"/>
<path d="M141 -10.5H139.5V-9V217.5C139.5 220.814 142.186 223.5 145.5 223.5C148.814 223.5 151.5 220.814 151.5 217.5V-9V-10.5H150H141Z" fill="#E2AA73" stroke="#402209" stroke-width="3"/>
<g style="mix-blend-mode:multiply">
<path fill-rule="evenodd" clip-rule="evenodd" d="M150 -5H141V217.5C141 219.985 143.015 222 145.5 222C146.026 222 146.531 221.91 147 221.744C145.252 221.126 144 219.459 144 217.5V1H150V-5Z" fill="#DCBB95"/>
</g>
<path d="M139 137L152 130" stroke="#402209" stroke-width="2"/>
<path d="M139 53L152 46" stroke="#402209" stroke-width="2"/>
<path d="M139 125L152 118" stroke="#402209" stroke-width="2"/>
<path d="M139 41L152 34" stroke="#402209" stroke-width="2"/>
<path d="M139 161L152 154" stroke="#402209" stroke-width="2"/>
<path d="M139 77L152 70" stroke="#402209" stroke-width="2"/>
<path d="M139 17L152 10" stroke="#402209" stroke-width="2"/>
<path d="M139 185L152 178" stroke="#402209" stroke-width="2"/>
<path d="M139 101L152 94" stroke="#402209" stroke-width="2"/>
<path d="M139 209L152 202" stroke="#402209" stroke-width="2"/>
<path d="M139 173L152 166" stroke="#402209" stroke-width="2"/>
<path d="M139 89L152 82" stroke="#402209" stroke-width="2"/>
<path d="M139 29L152 22" stroke="#402209" stroke-width="2"/>
<path d="M139 149L152 142" stroke="#402209" stroke-width="2"/>
<path d="M139 65L152 58" stroke="#402209" stroke-width="2"/>
<path d="M139 5L152 -2" stroke="#402209" stroke-width="2"/>
<path d="M139 197L152 190" stroke="#402209" stroke-width="2"/>
<path d="M139 113L152 106" stroke="#402209" stroke-width="2"/>
<path d="M141.5 220L152 214" stroke="#402209" stroke-width="2"/>
</svg>
