<svg width="57" height="56" viewBox="0 0 57 56" fill="none" xmlns="http://www.w3.org/2000/svg">
<circle cx="28.2803" cy="28" r="25.9743" fill="#FFEFD7" stroke="#402209" stroke-width="3.9486"/>
<path d="M28.2241 13.9312C26.7833 12.5814 26.7831 12.5815 26.7829 12.5817L26.7824 12.5823L26.7808 12.584L26.7751 12.5902L26.7542 12.6125L26.6759 12.6968C26.608 12.7701 26.5093 12.8771 26.3837 13.0142C26.1325 13.2885 25.7738 13.6839 25.3395 14.1722C24.472 15.1477 23.2981 16.4998 22.0767 18.0024C20.8584 19.5011 19.5751 21.1712 18.4977 22.7796C17.447 24.3481 16.4887 26.0079 16.0468 27.4563L16.046 27.4589C14.7226 31.8182 16.1729 35.997 18.6295 38.9894C21.0502 41.9378 24.699 44.0434 28.2824 44.0434C31.8654 44.0434 35.513 41.9396 37.9326 38.9913C40.3883 35.9989 41.8359 31.8204 40.5131 27.4593L40.5128 27.4585C40.0709 26.0039 39.1023 24.3405 38.0415 22.7722C36.953 21.163 35.6547 19.4924 34.4219 17.9936C33.1858 16.4908 31.9971 15.1386 31.1186 14.163C30.6788 13.6747 30.3154 13.2793 30.061 13.0049C29.9337 12.8677 29.8337 12.7607 29.7649 12.6874L29.6856 12.6032L29.6644 12.5808L29.6586 12.5747L29.657 12.5729L29.6564 12.5724C29.6563 12.5722 29.6561 12.572 28.2241 13.9312ZM28.2241 13.9312L26.7833 12.5814C27.155 12.1846 27.6739 11.9586 28.2177 11.9569C28.7614 11.9551 29.2818 12.1776 29.6561 12.572L28.2241 13.9312Z" fill="url(#paint0_linear_1_7020)" stroke="#402209" stroke-width="3.9486" stroke-linejoin="round"/>
<circle cx="20.8324" cy="30.4823" r="1.65517" fill="white"/>
<path d="M21.3228 33.793C21.3228 33.793 22.5612 38.0741 26.5972 39.3063" stroke="white" stroke-width="1.9743" stroke-linecap="round"/>
<defs>
<linearGradient id="paint0_linear_1_7020" x1="28.2796" y1="13.9312" x2="28.2796" y2="47.3449" gradientUnits="userSpaceOnUse">
<stop stop-color="#98CEFF"/>
<stop offset="1" stop-color="#0A569D"/>
</linearGradient>
</defs>
</svg>
