<svg width="38" height="38" viewBox="0 0 38 38" fill="none" xmlns="http://www.w3.org/2000/svg">
<rect x="1.5" y="1.5" width="34.9997" height="34.9997" rx="17.4999" fill="#FFD28E" stroke="#402209" stroke-width="3"/>
<g style="mix-blend-mode:multiply" opacity="0.44">
<path fill-rule="evenodd" clip-rule="evenodd" d="M3.12391 17C3.04213 17.6555 3 18.3233 3 19.001C3 27.8375 10.1634 35.001 18.9999 35.001C27.8364 35.001 34.9997 27.8375 34.9997 19.001C34.9997 18.3233 34.9576 17.6555 34.8758 17C33.8912 24.8921 27.1587 30.999 18.9999 30.999C10.841 30.999 4.10854 24.8921 3.12391 17Z" fill="#9C5E2F"/>
</g>
<path fill-rule="evenodd" clip-rule="evenodd" d="M24.9223 10.9675C25.3552 10.5679 26.03 10.5949 26.4296 11.0278C30.4214 15.3521 30.4214 22.0175 26.4296 26.3419C26.03 26.7748 25.3552 26.8018 24.9223 26.4022C24.4894 26.0026 24.4624 25.3277 24.862 24.8949C28.0994 21.3877 28.0994 15.9819 24.862 12.4748C24.4624 12.0419 24.4894 11.3671 24.9223 10.9675ZM21.1581 13.6638C21.5747 13.2472 22.2501 13.2472 22.6666 13.6638C25.4397 16.4368 25.4397 20.9328 22.6666 23.7059C22.2501 24.1225 21.5747 24.1225 21.1581 23.7059C20.7415 23.2893 20.7415 22.6139 21.1581 22.1974C23.098 20.2574 23.098 17.1122 21.1581 15.1723C20.7415 14.7557 20.7415 14.0803 21.1581 13.6638ZM11.9493 15.4847H9.64531C9.05619 15.4847 8.57861 15.9623 8.57861 16.5514V22.4183C8.57861 23.0074 9.05619 23.485 9.64531 23.485H11.9789C12.1958 23.485 12.4076 23.5511 12.586 23.6746L17.5717 27.1263C18.2792 27.6161 19.2456 27.1097 19.2456 26.2493V12.3175C19.2456 11.4325 18.23 10.9325 17.5285 11.4721L12.5996 15.2635C12.4132 15.407 12.1845 15.4847 11.9493 15.4847Z" fill="#402209"/>
</svg>
