<svg width="38" height="38" viewBox="0 0 38 38" fill="none" xmlns="http://www.w3.org/2000/svg">
<rect x="1.5" y="1.5" width="34.9997" height="34.9997" rx="17.4999" fill="#FFD28E" stroke="#402209" stroke-width="3"/>
<g style="mix-blend-mode:multiply" opacity="0.44">
<path fill-rule="evenodd" clip-rule="evenodd" d="M3.12391 17C3.04213 17.6555 3 18.3233 3 19.001C3 27.8375 10.1634 35.001 18.9999 35.001C27.8364 35.001 34.9997 27.8375 34.9997 19.001C34.9997 18.3233 34.9576 17.6555 34.8758 17C33.8912 24.8921 27.1587 30.999 18.9999 30.999C10.841 30.999 4.10854 24.8921 3.12391 17Z" fill="#9C5E2F"/>
</g>
<path d="M25.3149 9.94056L15.7769 11.8046C15.2785 11.9054 14.9237 12.3496 14.9237 12.8626V23.2088C14.1603 22.8973 13.1634 22.8928 12.1889 23.2729C10.5184 23.9278 9.57094 25.4667 10.0649 26.7079C10.5589 27.9491 12.3102 28.43 13.9807 27.775C15.3862 27.2209 16.2843 26.0392 16.2349 24.94V15.4823L24.6233 13.8427V21.0699C23.8599 20.7585 22.8585 20.7539 21.8886 21.1341C20.2226 21.789 19.2706 23.3279 19.7645 24.569C20.2585 25.8102 22.0098 26.2911 23.6758 25.6362C25.0589 25.0912 25.9481 23.9416 25.9301 22.8561H25.9346V10.4718C25.9346 10.1741 25.7011 9.93598 25.4137 9.93598C25.3822 9.9314 25.3508 9.93598 25.3149 9.94056Z" fill="#402209" stroke="#402209"/>
</svg>
