<svg width="207" height="156" viewBox="0 0 207 156" fill="none" xmlns="http://www.w3.org/2000/svg">
<mask id="path-1-inside-1_2876_38120" fill="white">
<path fill-rule="evenodd" clip-rule="evenodd" d="M13 0C5.8203 0 0 5.8203 0 13V122C0 128.66 5.00751 134.15 11.4626 134.91L7.80862 155.943L38.7961 135H194C201.18 135 207 129.18 207 122V13C207 5.8203 201.18 0 194 0H13Z"/>
</mask>
<path fill-rule="evenodd" clip-rule="evenodd" d="M13 0C5.8203 0 0 5.8203 0 13V122C0 128.66 5.00751 134.15 11.4626 134.91L7.80862 155.943L38.7961 135H194C201.18 135 207 129.18 207 122V13C207 5.8203 201.18 0 194 0H13Z" fill="white"/>
<path d="M11.4626 134.91L14.4184 135.424L14.9608 132.301L11.8137 131.931L11.4626 134.91ZM7.80862 155.943L4.85289 155.43L3.64587 162.378L9.48851 158.429L7.80862 155.943ZM38.7961 135V132H37.8774L37.1162 132.514L38.7961 135ZM3 13C3 7.47715 7.47715 3 13 3V-3C4.16344 -3 -3 4.16345 -3 13H3ZM3 122V13H-3V122H3ZM11.8137 131.931C6.85131 131.346 3 127.121 3 122H-3C-3 130.199 3.16371 136.953 11.1116 137.889L11.8137 131.931ZM10.7643 156.457L14.4184 135.424L8.50691 134.397L4.85289 155.43L10.7643 156.457ZM37.1162 132.514L6.12872 153.458L9.48851 158.429L40.476 137.486L37.1162 132.514ZM194 132H38.7961V138H194V132ZM204 122C204 127.523 199.523 132 194 132V138C202.837 138 210 130.837 210 122H204ZM204 13V122H210V13H204ZM194 3C199.523 3 204 7.47715 204 13H210C210 4.16344 202.837 -3 194 -3V3ZM13 3H194V-3H13V3Z" fill="#402209" mask="url(#path-1-inside-1_2876_38120)"/>
</svg>
