<svg width="56" height="56" viewBox="0 0 56 56" fill="none" xmlns="http://www.w3.org/2000/svg">
<circle cx="28" cy="28" r="25.9743" fill="#FFEFD7" stroke="#402209" stroke-width="3.9486"/>
<path d="M27.1204 44.6204L27.1204 44.6204L27.1288 44.6232C27.6001 44.7801 28.0253 44.7483 28.2684 44.7137C28.5365 44.6756 28.783 44.6033 28.9856 44.5321C29.3911 44.3896 29.8199 44.1797 30.2348 43.951C31.076 43.4872 32.0868 42.8191 33.1492 42.0459C35.2802 40.4951 37.7856 38.4 39.8249 36.3548C43.8861 32.2821 45.807 27.7168 45.2798 23.6623C44.7333 19.4588 41.6322 16.3849 36.978 15.4151C33.7743 14.7474 31.1983 15.6383 29.3821 16.8241C28.76 17.2303 28.2237 17.6723 27.7731 18.102C26.0204 16.6157 23.0758 15.0369 18.9495 15.3803L18.949 15.3804C15.1102 15.701 11.9528 18.4962 10.957 22.3816C9.94989 26.3111 11.1749 31.0865 15.3594 35.6235C21.4807 42.2668 26.0057 44.2438 27.1204 44.6204Z" fill="url(#paint0_linear_1_7011)" stroke="#402209" stroke-width="3.95" stroke-linejoin="round"/>
<circle cx="18.0692" cy="23.035" r="2.48276" fill="white"/>
<defs>
<linearGradient id="paint0_linear_1_7011" x1="27.8729" y1="17.2412" x2="27.8729" y2="47.3356" gradientUnits="userSpaceOnUse">
<stop stop-color="#FF8D8D"/>
<stop offset="1" stop-color="#C93413"/>
</linearGradient>
</defs>
</svg>
