<svg width="23" height="20" viewBox="0 0 23 20" fill="none" xmlns="http://www.w3.org/2000/svg">
<path d="M21.3588 2.99983C21.4019 2.89137 21.4419 2.77963 21.4787 2.66448C21.6027 2.27631 21.4788 1.8517 21.1655 1.59118C20.8521 1.33066 20.412 1.28633 20.053 1.47913C19.4904 1.78127 18.9555 2.03909 18.3624 2.21389C16.848 0.827835 14.6678 0.827868 13.0249 1.62317C11.5005 2.36115 10.2597 3.85861 10.1937 5.81679C7.41314 5.35538 5.59481 3.92461 3.98776 2.13099C3.77626 1.89494 3.46539 1.77312 3.14983 1.80264C2.83427 1.83217 2.55139 2.00953 2.38735 2.28071C1.65546 3.49062 1.64496 4.93272 1.95555 6.11529C2.01657 6.34761 2.09275 6.5801 2.18337 6.80785C2.18311 6.80803 2.18284 6.8082 2.18257 6.80838C1.89335 6.99883 1.72325 7.32537 1.73294 7.67153C1.77022 9.00416 2.15706 10.0793 2.86207 10.9139C2.9655 11.0364 3.07418 11.1517 3.18745 11.2605C3.08963 11.4839 3.07541 11.739 3.15444 11.9769C3.46975 12.9263 3.98519 13.7534 4.75575 14.3701C4.91022 14.4937 5.07229 14.6068 5.2417 14.7094C5.1026 14.7599 4.95992 14.8071 4.81432 14.8503C3.90384 15.1205 2.95937 15.2141 2.16041 15.0842C1.69329 15.0083 1.23692 15.2702 1.06682 15.7118C0.896729 16.1535 1.0595 16.6539 1.45686 16.9109C3.2359 18.0617 5.36698 19.0408 8.30337 18.904L21.3588 2.99983ZM21.3588 2.99983C21.4831 3.04755 21.599 3.12055 21.6984 3.21757C22.0039 3.51567 22.0865 3.97481 21.9041 4.3607C21.4983 5.21903 20.7242 5.95358 20.0948 6.49952C19.959 9.94919 18.8 12.9244 16.8029 15.1082C14.714 17.3925 11.7674 18.7451 8.30359 18.904L21.3588 2.99983Z" fill="white" stroke="#402209" stroke-width="2" stroke-linejoin="round"/>
</svg>
