<svg width="57" height="56" viewBox="0 0 57 56" fill="none" xmlns="http://www.w3.org/2000/svg">
<circle cx="28.6401" cy="28" r="25.9743" fill="#FFEFD7" stroke="#402209" stroke-width="3.9486"/>
<path d="M34.0348 41.6186C34.1457 41.6918 34.2623 41.7528 34.3828 41.8015C35.8474 42.4754 37.5566 42.3918 38.7881 41.2953C40.0708 40.1532 40.3177 38.38 39.7345 36.7646L37.5458 30.4571L41.5808 26.8527C41.6445 26.7959 41.7043 26.735 41.7601 26.6704C42.7756 25.494 43.4004 23.856 42.7892 22.256C42.1523 20.5888 40.5198 19.8368 38.879 19.7689C38.8733 19.7687 38.8676 19.7685 38.8619 19.7683C38.8521 19.768 38.8422 19.7677 38.8324 19.7676L34.0315 19.6823L31.7082 14.6177C31.0594 13.0616 29.6771 11.969 28.0108 11.9569C26.3235 11.9447 24.9323 13.0417 24.2897 14.6417L21.94 19.6811L16.8082 19.7675C16.7889 19.7679 16.7696 19.7685 16.7504 19.7694C15.1799 19.8419 13.6213 20.6164 12.9258 22.1413C12.1909 23.7524 12.7329 25.482 13.9497 26.7483C13.9624 26.7615 13.9753 26.7746 13.9884 26.7874L18.1263 30.8601L16.2883 36.8359C15.6659 38.7763 16.1927 40.6699 17.7151 41.7078C19.1161 42.6628 21.0077 42.6115 22.4324 41.5611C22.4331 41.5606 22.4338 41.56 22.4345 41.5595L27.8819 37.5546L34.0348 41.6186Z" fill="url(#paint0_linear_1_7016)" stroke="#402209" stroke-width="3.9486" stroke-linejoin="round"/>
<ellipse cx="18.7093" cy="23.8622" rx="2.48276" ry="1.65517" fill="white"/>
<defs>
<linearGradient id="paint0_linear_1_7016" x1="27.8117" y1="13.9312" x2="27.8117" y2="45.3794" gradientUnits="userSpaceOnUse">
<stop stop-color="#DB8EFF"/>
<stop offset="1" stop-color="#6C1794"/>
</linearGradient>
</defs>
</svg>
