<svg width="46" height="46" viewBox="0 0 46 46" fill="none" xmlns="http://www.w3.org/2000/svg">
<rect x="2" y="2" width="42" height="42" rx="11" fill="#D64F4F" stroke="#402209" stroke-width="4"/>
<path fill-rule="evenodd" clip-rule="evenodd" d="M4 29V33C4 37.9706 8.02944 42 13 42H33C37.9706 42 42 37.9706 42 33V29C42 33.9706 37.9706 38 33 38H13C8.02944 38 4 33.9706 4 29Z" fill="#A02424"/>
<path d="M14.4615 29.1337C14.1538 28.8293 14 28.4742 14 28.0684C14 27.6456 14.1538 27.2736 14.4615 26.9523L18.7851 22.488L14.4615 17.9729C14.17 17.6685 14.0162 17.3134 14 16.9075C14 16.4848 14.1538 16.1128 14.4615 15.7915L16.5019 13.6608C16.7933 13.3564 17.1496 13.2042 17.5706 13.2042C17.9916 13.2042 18.3479 13.3564 18.6394 13.6608L22.9144 18.1251L27.4323 13.4578C27.7238 13.1535 28.0719 13.0013 28.4768 13.0013C28.8816 12.9844 29.2297 13.1366 29.5212 13.4578L31.5616 15.5885C31.853 15.8929 31.9988 16.2565 31.9988 16.6793C32.015 17.0851 31.8692 17.4487 31.5616 17.77L27.0437 22.488L31.5616 27.1806C31.853 27.4849 31.9988 27.8485 31.9988 28.2713C32.015 28.6771 31.8692 29.0407 31.5616 29.362L29.5212 31.5434C29.2297 31.8478 28.8816 32 28.4768 32C28.0881 32 27.74 31.8478 27.4323 31.5434L22.9144 26.8001L18.6394 31.2644C18.3479 31.5688 17.9916 31.7294 17.5706 31.7463C17.1496 31.7463 16.7933 31.5857 16.5019 31.2644L14.4615 29.1337Z" fill="white"/>
</svg>
