<svg width="14" height="24" viewBox="0 0 14 24" fill="none" xmlns="http://www.w3.org/2000/svg">
<path d="M11.3447 14.1875C11.8394 14.1875 12.2597 13.8258 12.3335 13.3366L12.8521 9.89807C12.8955 9.61007 12.8112 9.31746 12.6212 9.09669C12.4313 8.87592 12.1545 8.74895 11.8632 8.74895H9.62096V7.51756C9.62096 7.18883 9.70211 6.98805 9.79095 6.88351C9.85435 6.8089 10.0229 6.65986 10.526 6.65986H12C12.5523 6.65986 13 6.21215 13 5.65986V2.7323C13 2.24604 12.6502 1.83026 12.1711 1.74705L12 2.7323C12.1711 1.74705 12.171 1.74704 12.1709 1.74702L12.1707 1.74699L12.1702 1.7469L12.1689 1.74667L12.1647 1.74595L12.1506 1.74357L12.1005 1.73528C12.0576 1.72831 11.9963 1.71859 11.9192 1.70704C11.7651 1.68397 11.5473 1.65345 11.288 1.62298C10.7738 1.56256 10.0771 1.5 9.38349 1.5C7.84132 1.5 6.45802 1.97991 5.46089 2.99556C4.46492 4.01004 3.96806 5.4429 3.96806 7.12828V8.74895H2C1.44772 8.74895 1 9.19666 1 9.74895V13.1875C1 13.7398 1.44772 14.1875 2 14.1875H3.96806V21.5C3.96806 22.0523 4.41577 22.5 4.96806 22.5H8.62096C9.17325 22.5 9.62096 22.0523 9.62096 21.5V14.1875H11.3447Z" fill="white" stroke="#402209" stroke-width="2" stroke-linejoin="round"/>
</svg>
