<svg width="49" height="48" viewBox="0 0 49 48" fill="none" xmlns="http://www.w3.org/2000/svg">
<path d="M24.5 42C29.4705 42 33.9705 39.9853 37.2279 36.7279C40.4853 33.4705 42.5 28.9705 42.5 24C42.5 19.0295 40.4853 14.5295 37.2279 11.2721C33.9705 8.01472 29.4705 6 24.5 6C19.5295 6 15.0295 8.01472 11.7721 11.2721C8.51472 14.5295 6.5 19.0295 6.5 24C6.5 28.9705 8.51472 33.4705 11.7721 36.7279C15.0295 39.9853 19.5295 42 24.5 42Z" fill="#D64F4F" stroke="#402209" stroke-width="4" stroke-linejoin="round"/>
<path fill-rule="evenodd" clip-rule="evenodd" d="M31.9142 19.4142C32.6953 18.6332 32.6953 17.3668 31.9142 16.5858C31.1332 15.8047 29.8668 15.8047 29.0858 16.5858L24.5 21.1716L19.9142 16.5858C19.1332 15.8047 17.8668 15.8047 17.0858 16.5858C16.3047 17.3668 16.3047 18.6332 17.0858 19.4142L21.6716 24L17.0858 28.5858C16.3047 29.3668 16.3047 30.6332 17.0858 31.4142C17.8668 32.1953 19.1332 32.1953 19.9142 31.4142L24.5 26.8284L29.0858 31.4142C29.8668 32.1953 31.1332 32.1953 31.9142 31.4142C32.6953 30.6332 32.6953 29.3668 31.9142 28.5858L27.3284 24L31.9142 19.4142Z" fill="white"/>
</svg>
