<svg width="70" height="70" viewBox="0 0 70 70" fill="none" xmlns="http://www.w3.org/2000/svg">
<rect x="1.88867" y="1.75" width="66.5" height="66.5" rx="9.25" fill="#FFEFD7"/>
<rect x="13.4326" y="24.9261" width="43.4125" height="35.3239" rx="7.25" fill="#FEE3E5" stroke="#402209" stroke-width="2.5"/>
<path fill-rule="evenodd" clip-rule="evenodd" d="M14.6826 46.5315V40.619L30.5549 26.1761H34.6709L35.8618 27.2597L14.6826 46.5315ZM15.9899 56.7391C15.1717 55.7136 14.6826 54.4139 14.6826 53V52.0161L42.3325 26.8563L45.5814 29.8126L15.9899 56.7391ZM26.0273 59H20.6826C20.3237 59 19.9722 58.9685 19.6306 58.9081L52.0491 29.4092L55.2979 32.3655L26.0273 59ZM38.5524 59H32.0547L55.5951 37.5797V43.4922L38.5524 59ZM51.3667 58.7342C50.8067 58.907 50.2118 59 49.5951 59H44.5768L55.5951 48.9741V53C55.5951 53.8161 55.4321 54.5942 55.137 55.3034L51.3667 58.7342ZM24.5305 26.1761L14.6826 35.1371V32.1761C14.6826 28.8624 17.3689 26.1761 20.6826 26.1761H24.5305Z" fill="#FFBCCD"/>
<path d="M51.727 24.9261H18.5505C14.5465 24.9261 11.3005 28.1721 11.3005 32.1761V34.1944C11.3005 35.9893 12.7556 37.4444 14.5505 37.4444H55.727C57.5219 37.4444 58.977 35.9893 58.977 34.1944V32.1761C58.977 28.1721 55.7311 24.9261 51.727 24.9261Z" fill="#FE8784" stroke="#402209" stroke-width="2.5"/>
<path opacity="0.2" fill-rule="evenodd" clip-rule="evenodd" d="M52.5903 36.1944H55.7271C56.8316 36.1944 57.7271 35.2989 57.7271 34.1944V32.1761C57.7271 28.8624 55.0408 26.1761 51.7271 26.1761H48.5903C51.904 26.1761 54.5903 28.8624 54.5903 32.1761V34.1944C54.5903 35.2989 53.6949 36.1944 52.5903 36.1944Z" fill="black"/>
<rect x="39.5254" y="24.9261" width="35.3239" height="8.77349" transform="rotate(90 39.5254 24.9261)" fill="#FFDF82" stroke="#402209" stroke-width="2.5"/>
<mask id="path-7-outside-1_1_1914" maskUnits="userSpaceOnUse" x="28.999" y="23.1765" width="12" height="16" fill="black">
<rect fill="white" x="28.999" y="23.1765" width="12" height="16"/>
<path fill-rule="evenodd" clip-rule="evenodd" d="M31.999 26.1765L31.999 36.1946H38.2725L38.2725 26.1765H31.999Z"/>
</mask>
<path fill-rule="evenodd" clip-rule="evenodd" d="M31.999 26.1765L31.999 36.1946H38.2725L38.2725 26.1765H31.999Z" fill="#DDB58A"/>
<path d="M31.999 36.1946L29.499 36.1946L29.499 38.6946H31.999V36.1946ZM31.999 26.1765V23.6765H29.499L29.499 26.1765L31.999 26.1765ZM38.2725 36.1946V38.6946H40.7725L40.7725 36.1946L38.2725 36.1946ZM38.2725 26.1765L40.7725 26.1765L40.7725 23.6765H38.2725V26.1765ZM34.499 36.1946L34.499 26.1765L29.499 26.1765L29.499 36.1946L34.499 36.1946ZM38.2725 33.6946H31.999V38.6946H38.2725V33.6946ZM35.7725 26.1765L35.7725 36.1946L40.7725 36.1946L40.7725 26.1765L35.7725 26.1765ZM31.999 28.6765H38.2725V23.6765H31.999V28.6765Z" fill="#402209" mask="url(#path-7-outside-1_1_1914)"/>
<path d="M22.9873 11.2947C18.6084 12.9725 16.7268 20.4614 19.5368 23.7512C21.1369 25.6245 28.6251 25.8074 32.1904 25.2134C34.9817 24.4207 34.6702 21.3509 34.5795 20.2497C34.3208 17.1114 27.9225 9.40369 22.9873 11.2947Z" fill="#FFDF82" stroke="#402209" stroke-width="2.5"/>
<path d="M22.998 11.2947C18.619 12.9725 23.4517 16.5126 26.2136 18.4509C28.7334 20.2192 34.7901 22.6756 34.5901 20.2497C34.3315 17.1114 27.9331 9.40369 22.998 11.2947Z" fill="#DDB58A" stroke="#402209" stroke-width="2.5"/>
<path d="M47.2893 11.2947C51.6682 12.9725 53.5498 20.4614 50.7399 23.7512C49.1398 25.6245 41.6515 25.8074 38.0862 25.2134C35.2949 24.4207 35.6064 21.3509 35.6971 20.2497C35.9558 17.1114 42.3541 9.40369 47.2893 11.2947Z" fill="#FFDF82" stroke="#402209" stroke-width="2.5"/>
<path d="M47.2786 11.2947C51.6576 12.9725 46.825 16.5126 44.063 18.4509C41.5432 20.2192 35.4865 22.6756 35.6865 20.2497C35.9451 17.1114 42.3435 9.40369 47.2786 11.2947Z" fill="#DDB58A" stroke="#402209" stroke-width="2.5"/>
<path d="M35.1384 26.0616C37.2787 26.0616 39.2195 24.457 39.2195 22.2355C39.2195 20.014 37.2787 18.4094 35.1384 18.4094C32.9982 18.4094 31.0574 20.014 31.0574 22.2355C31.0574 24.457 32.9982 26.0616 35.1384 26.0616Z" fill="#FFDF82" stroke="#402209" stroke-width="2.5"/>
<path fill-rule="evenodd" clip-rule="evenodd" d="M37.9194 21.7505C37.6701 22.9414 36.5198 23.8416 35.1384 23.8416C33.7571 23.8416 32.6068 22.9414 32.3575 21.7505C32.3246 21.9076 32.3074 22.0697 32.3074 22.2355C32.3074 23.6582 33.5749 24.8116 35.1384 24.8116C36.702 24.8116 37.9695 23.6582 37.9695 22.2355C37.9695 22.0697 37.9523 21.9076 37.9194 21.7505Z" fill="#DDB58A"/>
<rect x="1.88867" y="1.75" width="66.5" height="66.5" rx="9.25" stroke="#402209" stroke-width="2.5"/>
</svg>
