<svg width="19" height="151" viewBox="0 0 19 151" fill="none" xmlns="http://www.w3.org/2000/svg">
<ellipse cx="9.5" cy="144.108" rx="9.5" ry="6.89216" fill="#402209"/>
<path d="M5 1.5H3.5V3V142.873C3.5 146.186 6.18629 148.873 9.5 148.873C12.8137 148.873 15.5 146.186 15.5 142.873V3V1.5H14H5Z" fill="#E2AA73" stroke="#402209" stroke-width="3"/>
<g style="mix-blend-mode:multiply">
<path fill-rule="evenodd" clip-rule="evenodd" d="M8 4.45215H5V142.874C5 145.359 7.01472 147.374 9.5 147.374C10.026 147.374 10.5308 147.283 11 147.118C9.25222 146.5 8 144.833 8 142.874V4.45215Z" fill="#DCBB95"/>
</g>
<path d="M3 85.7054L16 80.627" stroke="#402209" stroke-width="2"/>
<path d="M3 24.765L16 19.6865" stroke="#402209" stroke-width="2"/>
<path d="M3 103.117L16 98.0391" stroke="#402209" stroke-width="2"/>
<path d="M3 42.1761L16 37.0977" stroke="#402209" stroke-width="2"/>
<path d="M3 120.53L16 115.451" stroke="#402209" stroke-width="2"/>
<path d="M3 59.5882L16 54.5098" stroke="#402209" stroke-width="2"/>
<path d="M3 137.942L16 132.863" stroke="#402209" stroke-width="2"/>
<path d="M3 76.9993L16 71.9209" stroke="#402209" stroke-width="2"/>
<path d="M3 111.824L16 106.745" stroke="#402209" stroke-width="2"/>
<path d="M3 50.8821L16 45.8037" stroke="#402209" stroke-width="2"/>
<path d="M3 94.4114L16 89.333" stroke="#402209" stroke-width="2"/>
<path d="M3 33.471L16 28.3926" stroke="#402209" stroke-width="2"/>
<path d="M3 129.236L16 124.157" stroke="#402209" stroke-width="2"/>
<path d="M3 68.2943L16 63.2158" stroke="#402209" stroke-width="2"/>
<path d="M5.5 145.922L16 141.569" stroke="#402209" stroke-width="2"/>
</svg>
