<svg width="57" height="56" viewBox="0 0 57 56" fill="none" xmlns="http://www.w3.org/2000/svg">
<circle cx="28.9209" cy="28" r="25.9743" fill="#FFEFD7" stroke="#402209" stroke-width="3.9486"/>
<path d="M27.9163 10.3329C20.9032 10.771 14.9781 15.7181 14.5545 22.8487C14.2768 27.5244 16.6147 31.6504 20.2259 34.1821L20.2263 34.1824C20.3078 34.2395 20.5114 34.4455 20.7744 34.9066C21.0187 35.3351 21.235 35.8421 21.4088 36.3224L21.4101 36.3259C22.0433 38.0652 23.7453 39.0785 25.4805 39.0785H32.3965C34.0968 39.0785 35.7915 38.103 36.4445 36.3904L34.5991 35.6868L36.443 36.3943C36.635 35.8939 36.8709 35.3576 37.1362 34.8983C37.4209 34.4054 37.6464 34.1657 37.7541 34.0884L37.7546 34.0879C41.0932 31.6866 43.3099 27.908 43.3099 23.5938C43.3099 15.7612 36.1224 9.81333 27.9163 10.3329ZM27.9163 10.3329L28.0394 12.3041L27.9144 10.333C27.915 10.333 27.9157 10.3329 27.9163 10.3329Z" fill="url(#paint0_linear_103_15176)" stroke="#402209" stroke-width="3.95"/>
<path d="M24.7832 43.7231H33.0591" stroke="#402209" stroke-width="3.9486" stroke-linecap="round"/>
<path d="M29.7487 17.2417L24.7832 23.8624H32.2315L28.0935 30.4831" stroke="white" stroke-width="2.96" stroke-linecap="round" stroke-linejoin="round"/>
<defs>
<linearGradient id="paint0_linear_103_15176" x1="28.9211" y1="12.2759" x2="28.9211" y2="44.5517" gradientUnits="userSpaceOnUse">
<stop stop-color="#C9F7C2"/>
<stop offset="1" stop-color="#3B8734"/>
</linearGradient>
</defs>
</svg>
