<svg width="45" height="45" viewBox="0 0 45 45" fill="none" xmlns="http://www.w3.org/2000/svg">
<rect x="3.5" y="3.5" width="38" height="38" rx="8" fill="#FFEFD7" stroke="#402209" stroke-width="2" stroke-linejoin="round"/>
<g style="mix-blend-mode:multiply" opacity="0.69">
<path fill-rule="evenodd" clip-rule="evenodd" d="M4.5 26.1587V29.2299C4.5 33.2164 4.5 35.2096 5.28811 36.7268C5.95223 38.0053 6.99468 39.0477 8.27318 39.7118C9.79035 40.4999 11.7836 40.4999 15.77 40.4999H29.23C33.2164 40.4999 35.2097 40.4999 36.7268 39.7118C38.0053 39.0477 39.0478 38.0053 39.7119 36.7268C40.5 35.2096 40.5 33.2164 40.5 29.2299V26.1587C40.5 30.1451 40.5 32.1383 39.7119 33.6555C39.0478 34.934 38.0053 35.9765 36.7268 36.6406C35.2097 37.4287 33.2164 37.4287 29.23 37.4287H15.77C11.7836 37.4287 9.79035 37.4287 8.27318 36.6406C6.99468 35.9765 5.95223 34.934 5.28811 33.6555C4.5 32.1383 4.5 30.1451 4.5 26.1587Z" fill="#A56B46"/>
</g>
<path d="M33.9193 18.9691H31.3002C31.096 18.2215 30.7992 17.5125 30.4229 16.8535L32.2751 15.0012C32.6489 14.6275 32.6489 14.0224 32.2751 13.6499L30.2251 11.5999C29.8513 11.2261 29.2463 11.2261 28.8738 11.5999L27.0215 13.4521C26.3625 13.0758 25.6535 12.779 24.9059 12.5748V9.95568C24.9059 9.42774 24.4781 9 23.9502 9H21.0498C20.5218 9 20.0941 9.42774 20.0941 9.95568V12.5748C19.3465 12.779 18.6362 13.0758 17.9785 13.4521L16.1262 11.5999C15.7525 11.2261 15.1474 11.2261 14.7749 11.5999L12.7249 13.6499C12.3511 14.0237 12.3511 14.6287 12.7249 15.0012L14.5771 16.8535C14.2008 17.5125 13.904 18.2215 13.6998 18.9691H11.0807C10.5527 18.9691 10.125 19.3968 10.125 19.9248V22.8252C10.125 23.3531 10.5527 23.7809 11.0807 23.7809H13.6998C13.904 24.5285 14.2008 25.2388 14.5771 25.8965L12.7249 27.7488C12.3511 28.1225 12.3511 28.7276 12.7249 29.1001L14.7749 31.1501C15.1487 31.5239 15.7537 31.5239 16.1262 31.1501L17.9785 29.2979C18.6375 29.6742 19.3465 29.971 20.0941 30.1752V32.7943C20.0941 33.3223 20.5218 33.75 21.0498 33.75H23.9502C24.4781 33.75 24.9059 33.3223 24.9059 32.7943V30.1752C25.6535 29.971 26.3625 29.6742 27.0215 29.2979L28.8738 31.1501C29.2475 31.5239 29.8526 31.5239 30.2251 31.1501L32.2751 29.1001C32.6489 28.7263 32.6489 28.1213 32.2751 27.7488L30.4229 25.8965C30.7992 25.2375 31.096 24.5285 31.3002 23.7809H33.9193C34.4473 23.7809 34.875 23.3531 34.875 22.8252V19.9248C34.875 19.3968 34.4473 18.9691 33.9193 18.9691ZM22.4987 26.4129C19.7165 26.4129 17.4609 24.1573 17.4609 21.375C17.4609 18.5927 19.7165 16.3371 22.4987 16.3371C25.281 16.3371 27.5366 18.5927 27.5366 21.375C27.5366 24.1573 25.281 26.4129 22.4987 26.4129Z" fill="#88C5FC" stroke="#402209" stroke-width="2" stroke-linejoin="round"/>
</svg>
