<svg width="45" height="45" viewBox="0 0 45 45" fill="none" xmlns="http://www.w3.org/2000/svg">
<rect x="3.5" y="3.5" width="38" height="38" rx="8" fill="#FFEFD7" stroke="#402209" stroke-width="2" stroke-linejoin="round"/>
<g style="mix-blend-mode:multiply" opacity="0.69">
<path fill-rule="evenodd" clip-rule="evenodd" d="M4.5 26.1587V29.2299C4.5 33.2164 4.5 35.2096 5.28811 36.7268C5.95223 38.0053 6.99468 39.0477 8.27318 39.7118C9.79035 40.4999 11.7836 40.4999 15.77 40.4999H29.23C33.2164 40.4999 35.2097 40.4999 36.7268 39.7118C38.0053 39.0477 39.0478 38.0053 39.7119 36.7268C40.5 35.2096 40.5 33.2164 40.5 29.2299V26.1587C40.5 30.1451 40.5 32.1383 39.7119 33.6555C39.0478 34.934 38.0053 35.9765 36.7268 36.6406C35.2097 37.4287 33.2164 37.4287 29.23 37.4287H15.77C11.7836 37.4287 9.79035 37.4287 8.27318 36.6406C6.99468 35.9765 5.95223 34.934 5.28811 33.6555C4.5 32.1383 4.5 30.1451 4.5 26.1587Z" fill="#A56B46"/>
</g>
<path d="M24.0689 29.8906L24.0987 29.8661C23.5763 29.8661 23.1524 29.4302 23.1524 28.8931V24.5255L23.1195 24.5286C22.3015 24.6023 21.0208 24.7619 19.5759 25.1118C18.1101 25.4678 16.7577 25.9466 15.5576 26.5329C14.1426 27.2265 12.8619 28.1412 11.8498 29.1786C11.814 29.2154 11.7812 29.2522 11.7453 29.2921L11.7424 29.2952C11.5095 29.55 11.2438 29.8415 10.8975 29.8415C10.6646 29.8415 10.4616 29.7587 10.3213 29.6052C10.2258 29.5008 10.1153 29.3167 10.1303 29.019C10.1482 28.6936 10.19 28.491 10.2168 28.356L10.2198 28.3437C10.2258 28.3161 10.2288 28.2915 10.2348 28.2701V28.2639C10.2974 27.8711 10.5661 26.4408 11.408 24.4918C11.9483 23.2426 12.6111 22.0824 13.3843 21.045C14.3516 19.7528 15.486 18.6417 16.7607 17.7517C17.0473 17.5307 19.6505 15.5909 23.1255 14.977L23.1494 14.974V11.076C23.1494 10.5389 23.5733 10.103 24.0957 10.103C24.3256 10.103 24.5495 10.189 24.7226 10.3455L34.5504 19.2403C34.9415 19.5963 34.9803 20.2101 34.637 20.6153C34.6101 20.646 34.5832 20.6736 34.5534 20.7012L24.7256 29.6236C24.5525 29.7801 24.3286 29.8661 24.0987 29.8661L24.1286 29.8968L24.0689 29.8906Z" fill="#FF8F8F"/>
<path d="M24.0987 29.8661L24.0689 29.8906L24.1286 29.8968L24.0987 29.8661ZM24.0987 29.8661C23.5763 29.8661 23.1524 29.4302 23.1524 28.8931V24.5255L23.1195 24.5286C22.3015 24.6023 21.0208 24.7619 19.5759 25.1118C18.1101 25.4678 16.7577 25.9466 15.5576 26.5329C14.1426 27.2265 12.8619 28.1412 11.8498 29.1786C11.814 29.2154 11.7812 29.2522 11.7453 29.2921L11.7424 29.2952C11.5095 29.55 11.2438 29.8415 10.8975 29.8415C10.6646 29.8415 10.4616 29.7587 10.3213 29.6052C10.2258 29.5008 10.1153 29.3167 10.1303 29.019C10.1482 28.6936 10.19 28.491 10.2168 28.356L10.2198 28.3437C10.2258 28.3161 10.2288 28.2915 10.2348 28.2701V28.2639C10.2974 27.8711 10.5661 26.4408 11.408 24.4918C11.9483 23.2426 12.6111 22.0824 13.3843 21.045C14.3516 19.7528 15.486 18.6417 16.7607 17.7517C17.0473 17.5307 19.6505 15.5909 23.1255 14.977L23.1494 14.974V11.076C23.1494 10.5389 23.5733 10.103 24.0957 10.103C24.3256 10.103 24.5495 10.189 24.7226 10.3455L34.5504 19.2403C34.9415 19.5963 34.9803 20.2101 34.637 20.6153C34.6101 20.646 34.5832 20.6736 34.5534 20.7012L24.7256 29.6236C24.5525 29.7801 24.3286 29.8661 24.0987 29.8661Z" stroke="#402209" stroke-width="2" stroke-linejoin="round"/>
</svg>
