<svg width="49" height="49" viewBox="0 0 49 49" fill="none" xmlns="http://www.w3.org/2000/svg">
<path d="M24.5 42.5C29.4705 42.5 33.9705 40.4853 37.2279 37.2279C40.4853 33.9705 42.5 29.4705 42.5 24.5C42.5 19.5295 40.4853 15.0295 37.2279 11.7721C33.9705 8.51472 29.4705 6.5 24.5 6.5C19.5295 6.5 15.0295 8.51472 11.7721 11.7721C8.51472 15.0295 6.5 19.5295 6.5 24.5C6.5 29.4705 8.51472 33.9705 11.7721 37.2279C15.0295 40.4853 19.5295 42.5 24.5 42.5Z" fill="#BAD60F" stroke="#402209" stroke-width="4" stroke-linejoin="round"/>
<path d="M16.5 24.5L22.5 30.5L28.5 24.5L31.5 21.5L33 20" stroke="#402209" stroke-width="4" stroke-linecap="round" stroke-linejoin="round"/>
</svg>
