<svg width="31" height="30" viewBox="0 0 31 30" fill="none" xmlns="http://www.w3.org/2000/svg">
<circle cx="16.1699" cy="15.7812" r="10.4688" fill="#E78442" stroke="#402209"/>
<circle cx="14.1074" cy="15.7812" r="10.4688" fill="#FFCD4B" stroke="#402209"/>
<circle cx="13.7637" cy="15.7812" r="7.71875" fill="#E78442" stroke="#402209"/>
<path d="M15.7171 13.1051L15.2807 12.2207C14.7304 11.1058 13.1407 11.1058 12.5904 12.2207L12.154 13.1051C12.0811 13.2527 11.9403 13.355 11.7775 13.3786L10.8015 13.5205C9.57113 13.6993 9.07987 15.2112 9.97014 16.079L10.6764 16.7674C10.7942 16.8823 10.848 17.0478 10.8202 17.21L10.6535 18.1821C10.4433 19.4074 11.7295 20.3419 12.8299 19.7633L13.7029 19.3044C13.8485 19.2278 14.0226 19.2278 14.1682 19.3044L15.0412 19.7634C16.1416 20.3419 17.4278 19.4074 17.2176 18.1821L17.0509 17.21C17.0231 17.0478 17.0769 16.8823 17.1947 16.7674L17.901 16.079C18.7912 15.2112 18.3 13.6993 17.0696 13.5205L16.0936 13.3786C15.9308 13.355 15.79 13.2527 15.7171 13.1051Z" fill="#FFCD4B" stroke="#402209"/>
</svg>
